<svg width="60" height="37" viewBox="0 0 60 37" fill="none" xmlns="http://www.w3.org/2000/svg">
<g filter="url(#filter0_d_29_8)">
<rect x="4" width="52" height="29" fill="#0D0D0D"/>
<path d="M39.7073 9.64648C39.4132 9.65821 38.9927 9.62695 38.847 9.7832C38.7402 9.91602 38.9108 10.0446 39.0482 10.1559L44.3106 14.1418C44.3163 14.2268 44.3193 14.3144 44.3072 14.4006C44.3038 14.4185 44.3017 14.4366 44.2968 14.4543C44.2967 14.4549 44.2969 14.4554 44.2968 14.4561C44.2634 14.5758 44.1929 14.6919 44.0783 14.7995C44.0736 14.8034 44.0692 14.807 44.0644 14.8109C44.0518 14.8223 44.0399 14.8338 44.0262 14.8451C44.0245 14.8466 44.0211 14.8484 44.0193 14.8499C43.9842 14.8782 43.9471 14.9062 43.9048 14.9329C42.2588 16.1961 40.5992 17.4568 38.9614 18.722C38.6681 18.9303 39.0024 19.1377 39.4887 19.1306L43.9776 19.142C44.7583 19.1288 45.441 18.878 45.7676 18.5528C46.3167 18.1036 46.8951 17.662 47.464 17.2182L47.7137 17.0245C48.6962 16.3155 49.5995 15.5821 50.5584 14.8647C50.9552 14.5887 50.9497 14.2072 50.5584 13.9305L45.5448 10.0996C45.2021 9.83007 44.5546 9.6507 43.8831 9.652L39.7065 9.64712L39.7073 9.64648Z" fill="white"/>
<path d="M20.4478 9.64674C20.4163 9.64694 20.3868 9.64759 20.3541 9.65C18.892 9.64738 17.428 9.65396 15.9657 9.65488C15.1599 9.65001 14.4666 9.91702 14.1236 10.2441L12.1152 11.8229L9.39195 13.8866C8.94952 14.1489 8.86428 14.5216 9.22544 14.816C10.8629 16.0738 12.5178 17.3263 14.1619 18.5823C14.4867 18.8883 15.1032 19.1309 15.8548 19.1503C17.2413 19.1603 18.6273 19.1537 20.0142 19.1569C20.6828 19.1581 21.3641 19.0134 20.8502 18.6816C19.1268 17.3592 17.4044 16.0345 15.6817 14.7116C15.6182 14.6676 15.5568 14.6227 15.4943 14.5781C15.4987 14.5594 15.5034 14.5401 15.5082 14.5211C15.5195 14.5086 15.526 14.488 15.529 14.4593C15.6125 14.2313 15.7989 14.0227 16.0181 13.8196C17.648 12.5705 19.2787 11.3198 20.9093 10.0713C21.2463 9.87939 20.9202 9.64358 20.4479 9.64651L20.4478 9.64674Z" fill="white"/>
<path fill-rule="evenodd" clip-rule="evenodd" d="M35.2884 8H32.0209C31.9561 8 31.8912 8.00447 31.8264 8.00893C31.7616 8.01786 31.6967 8.03126 31.6449 8.04466C31.593 8.06253 31.5411 8.08039 31.5152 8.09826C31.4763 8.12059 31.4504 8.14292 31.4374 8.16525L23.917 20.7781C23.904 20.8093 23.904 20.8405 23.917 20.8718C23.9429 20.8986 23.9818 20.9298 24.0336 20.9522C24.0985 20.979 24.1633 20.9969 24.2541 21.0103C24.3319 21.0236 24.4226 21.0281 24.5134 21.0281H27.7679C27.8328 21.0281 27.8976 21.0236 27.9624 21.0147C28.0273 21.0103 28.0921 20.9969 28.144 20.9835C28.1958 20.9656 28.2477 20.9477 28.2866 20.9298C28.3125 20.9075 28.3385 20.8852 28.3514 20.8629L35.8719 8.25011C35.8978 8.21885 35.8978 8.18758 35.8719 8.15632C35.846 8.12506 35.8071 8.09826 35.7552 8.07593C35.6904 8.04913 35.6255 8.03126 35.5477 8.01786C35.457 8.00447 35.3792 8 35.2884 8Z" fill="white"/>
</g>
<defs>
<filter id="filter0_d_29_8" x="0" y="0" width="60" height="37" filterUnits="userSpaceOnUse" color-interpolation-filters="sRGB">
<feFlood flood-opacity="0" result="BackgroundImageFix"/>
<feColorMatrix in="SourceAlpha" type="matrix" values="0 0 0 0 0 0 0 0 0 0 0 0 0 0 0 0 0 0 127 0" result="hardAlpha"/>
<feOffset dy="4"/>
<feGaussianBlur stdDeviation="2"/>
<feComposite in2="hardAlpha" operator="out"/>
<feColorMatrix type="matrix" values="0 0 0 0 0 0 0 0 0 0 0 0 0 0 0 0 0 0 0.25 0"/>
<feBlend mode="normal" in2="BackgroundImageFix" result="effect1_dropShadow_29_8"/>
<feBlend mode="normal" in="SourceGraphic" in2="effect1_dropShadow_29_8" result="shape"/>
</filter>
</defs>
</svg>
