<svg width="96" height="48" viewBox="0 0 96 48" fill="none" xmlns="http://www.w3.org/2000/svg">
<path d="M70.433 6.0625C69.7583 6.1057 68.7939 5.99054 68.4597 6.56622C68.2146 7.05554 68.6061 7.52931 68.9212 7.93946L80.9914 22.6249C81.0044 22.938 81.0112 23.2606 80.9835 23.5784C80.9758 23.6441 80.971 23.711 80.9597 23.7763C80.9595 23.7782 80.96 23.7801 80.9597 23.7826C80.883 24.2236 80.7214 24.6514 80.4584 25.0479C80.4478 25.0622 80.4377 25.0758 80.4266 25.0899C80.3977 25.1321 80.3705 25.1745 80.3391 25.2159C80.335 25.2215 80.3273 25.2282 80.3232 25.2337C80.2427 25.3379 80.1575 25.4412 80.0606 25.5396C76.2852 30.1934 72.4786 34.8383 68.722 39.5C68.0494 40.2671 68.8162 41.0315 69.9315 41.0052L80.2275 41.0472C82.0182 40.9986 83.5841 40.0745 84.3332 38.8764C85.5927 37.2213 86.9194 35.5945 88.2241 33.9592L88.797 33.2456C91.0504 30.6334 93.1223 27.9313 95.3215 25.2883C96.2318 24.2713 96.2191 22.8657 95.3215 21.8463L83.8221 7.73175C83.036 6.73891 81.551 6.07802 80.0107 6.08282L70.4312 6.06482L70.433 6.0625Z" fill="white"/>
<path d="M26.2573 6.06346C26.1851 6.06416 26.1174 6.06658 26.0424 6.07545C22.6887 6.0658 19.331 6.09006 15.9769 6.09344C14.1287 6.07549 12.5384 7.05925 11.7518 8.26424L7.14518 14.0811L0.899 21.6847C-0.115772 22.651 -0.311285 24.024 0.517075 25.1088C4.27296 29.743 8.06857 34.3576 11.8397 38.9852C12.5847 40.1124 13.9987 41.0064 15.7226 41.078C18.9027 41.1146 22.0817 41.0903 25.2628 41.102C26.7962 41.1066 28.3589 40.5734 27.1804 39.351C23.2274 34.479 19.2769 29.5981 15.3256 24.7242C15.1798 24.5619 15.039 24.3965 14.8957 24.2322C14.9058 24.1635 14.9166 24.0921 14.9275 24.0224C14.9536 23.9763 14.9684 23.9002 14.9753 23.7945C15.1668 22.9545 15.5943 22.1861 16.0971 21.4378C19.8355 16.8356 23.5759 12.2275 27.3158 7.62772C28.0887 6.9206 27.3408 6.0518 26.2576 6.0626L26.2573 6.06346Z" fill="white"/>
<path fill-rule="evenodd" clip-rule="evenodd" d="M60.2959 0H52.8014C52.6527 0 52.504 0.016456 52.3552 0.032912C52.2066 0.0658205 52.0579 0.115188 51.9389 0.164553C51.82 0.230373 51.701 0.296197 51.6415 0.362018C51.5523 0.444294 51.4928 0.526571 51.4631 0.608847L34.2137 47.0787C34.184 47.1938 34.184 47.3089 34.2137 47.4243C34.2732 47.5229 34.3624 47.638 34.4814 47.7205C34.6301 47.8192 34.7788 47.8849 34.987 47.9342C35.1654 47.9836 35.3736 48 35.5818 48H43.0466C43.1952 48 43.344 47.9836 43.4927 47.9507C43.6414 47.9342 43.7901 47.8849 43.909 47.8356C44.028 47.7699 44.147 47.7038 44.2362 47.638C44.2956 47.5558 44.3551 47.4736 44.3849 47.3914L61.6342 0.921497C61.6937 0.806308 61.6937 0.691123 61.6342 0.575935C61.5747 0.46075 61.4855 0.362018 61.3666 0.279741C61.2179 0.181009 61.0692 0.115188 60.8907 0.0658204C60.6826 0.0164559 60.5041 0 60.2959 0Z" fill="white"/>
</svg>
